Coordinates
version=1
nRows=27
nColumns=12
inDegrees=yes

Units are S.I. units (second, meters, Newtons, ...)
Angles are in degrees

endheader
time	SC_y	SC_z	SC_x	AC_y	AC_z	AC_x	GH_y	GH_z	GH_yy	EL_x	PS_y
       0.0              -55.44          24.85          28.54          32.78         -4.512           6.69          60.72          -9.74         -133.4          127.6          14.92
   0.03656              -55.44          24.85          28.54          32.78         -4.513          6.691          60.69         -9.736         -133.3          127.6          14.93
   0.07312              -55.44          24.85          28.54          32.78         -4.514          6.692          60.66         -9.731         -133.3          127.6          14.94
    0.1097              -55.44          24.84          28.53          32.78         -4.515          6.694          60.64         -9.726         -133.2          127.6          14.96
    0.1462              -55.44          24.84          28.53          32.78         -4.516          6.695          60.61         -9.721         -133.2          127.6          14.97
    0.1828              -55.44          24.83          28.53          32.78         -4.517          6.697          60.57         -9.716         -133.1          127.6          14.99
    0.2194              -55.44          24.83          28.53          32.78         -4.518          6.698          60.54          -9.71         -133.1          127.6           15.0
    0.2559              -55.43          24.82          28.52          32.78          -4.52            6.7           60.5         -9.703         -133.0          127.6          15.02
    0.2925              -55.43          24.82          28.52          32.78         -4.521          6.701          60.46         -9.697         -132.9          127.6          15.04
     0.329              -55.43          24.81          28.52          32.78         -4.522          6.703          60.42         -9.689         -132.9          127.6          15.06
    0.3656              -55.43           24.8          28.51          32.78         -4.524          6.705          60.37         -9.681         -132.8          127.6          15.09
    0.4022              -55.43          24.79          28.51          32.78         -4.526          6.707          60.32         -9.673         -132.7          127.6          15.11
    0.4387              -55.43          24.79           28.5          32.77         -4.527           6.71          60.27         -9.664         -132.6          127.6          15.14
    0.4753              -55.42          24.78           28.5          32.77         -4.529          6.712          60.21         -9.654         -132.5          127.6          15.16
    0.5118              -55.42          24.77          28.49          32.77         -4.531          6.715          60.15         -9.643         -132.4          127.6          15.19
    0.5484              -55.42          24.76          28.49          32.77         -4.534          6.718          60.09         -9.632         -132.3          127.6          15.23
    0.5849              -55.42          24.75          28.48          32.77         -4.536          6.721          60.01         -9.619         -132.2          127.6          15.26
    0.6215              -55.41          24.73          28.48          32.77         -4.539          6.725          59.93         -9.606         -132.1          127.6           15.3
    0.6581              -55.41          24.72          28.47          32.77         -4.542          6.729          59.85         -9.591         -131.9          127.7          15.35
    0.6946              -55.41          24.71          28.46          32.77         -4.545          6.733          59.75         -9.575         -131.8          127.7          15.39
    0.7312               -55.4          24.69          28.45          32.77         -4.548          6.737          59.65         -9.557         -131.6          127.7          15.44
    0.7677               -55.4          24.67          28.44          32.77         -4.552          6.742          59.53         -9.537         -131.4          127.7           15.5
    0.8043              -55.39          24.65          28.43          32.77         -4.556          6.748           59.4         -9.515         -131.2          127.7          15.56
    0.8409              -55.39          24.63          28.42          32.77         -4.561          6.754          59.26         -9.491         -131.0          127.7          15.63
    0.8774              -55.38          24.61          28.41          32.76         -4.566          6.761          59.11         -9.464         -130.7          127.7          15.71
     0.914              -55.37          24.58          28.39          32.76         -4.572          6.769          58.93         -9.434         -130.5          127.7           15.8
    0.9505              -55.37          24.55          28.38          32.76         -4.579          6.777          58.74         -9.401         -130.1          127.7          15.89
